REM DIRINDEX 1\2,1\3,1\4,1\5
REM DIRNAME cjc005,folder01,folder02,folder03,folder04
TITLE ""
FILE "P1Q_t_0832-0841.mp3" MP3
  TRACK 01 AUDIO
    TITLE "3:cjc005_3400"
    INDEX 01 00:00:00
  TRACK 02 AUDIO
    TITLE "0:"
    INDEX 01 00:00:74
  TRACK 03 AUDIO
    TITLE "4:cjc005_3401"
    INDEX 01 00:01:24
  TRACK 04 AUDIO
    TITLE "0:"
    INDEX 01 00:02:20
  TRACK 05 AUDIO
    TITLE "5:cjc005_3402"
    INDEX 01 00:02:51
  TRACK 06 AUDIO
    TITLE "0:"
    INDEX 01 00:07:15
  TRACK 07 AUDIO
    TITLE "3:cjc005_3403"
    INDEX 01 00:07:70
  TRACK 08 AUDIO
    TITLE "0:"
    INDEX 01 00:08:66
  TRACK 09 AUDIO
    TITLE "4:cjc005_3404"
    INDEX 01 00:09:22
  TRACK 10 AUDIO
    TITLE "0:"
    INDEX 01 00:10:27
  TRACK 11 AUDIO
    TITLE "5:cjc005_3405"
    INDEX 01 00:10:51
  TRACK 12 AUDIO
    TITLE "0:"
    INDEX 01 00:14:66
  TRACK 13 AUDIO
    TITLE "3:cjc005_3406"
    INDEX 01 00:15:46
  TRACK 14 AUDIO
    TITLE "0:"
    INDEX 01 00:16:57
  TRACK 15 AUDIO
    TITLE "4:cjc005_3407"
    INDEX 01 00:17:14
  TRACK 16 AUDIO
    TITLE "0:"
    INDEX 01 00:18:25
  TRACK 17 AUDIO
    TITLE "5:cjc005_3408"
    INDEX 01 00:18:50
  TRACK 18 AUDIO
    TITLE "0:"
    INDEX 01 00:22:68
  TRACK 19 AUDIO
    TITLE "3:cjc005_3409"
    INDEX 01 00:23:42
  TRACK 20 AUDIO
    TITLE "0:"
    INDEX 01 00:24:61
  TRACK 21 AUDIO
    TITLE "4:cjc005_3410"
    INDEX 01 00:25:15
  TRACK 22 AUDIO
    TITLE "0:"
    INDEX 01 00:26:50
  TRACK 23 AUDIO
    TITLE "5:cjc005_3411"
    INDEX 01 00:27:02
  TRACK 24 AUDIO
    TITLE "0:"
    INDEX 01 00:30:03
  TRACK 25 AUDIO
    TITLE "3:cjc005_3412"
    INDEX 01 00:30:59
  TRACK 26 AUDIO
    TITLE "0:"
    INDEX 01 00:32:01
  TRACK 27 AUDIO
    TITLE "4:cjc005_3413"
    INDEX 01 00:32:21
  TRACK 28 AUDIO
    TITLE "0:"
    INDEX 01 00:33:26
  TRACK 29 AUDIO
    TITLE "5:cjc005_3414"
    INDEX 01 00:33:52
  TRACK 30 AUDIO
    TITLE "0:"
    INDEX 01 00:37:36
  TRACK 31 AUDIO
    TITLE "3:cjc005_3415"
    INDEX 01 00:38:12
  TRACK 32 AUDIO
    TITLE "0:"
    INDEX 01 00:39:35
  TRACK 33 AUDIO
    TITLE "4:cjc005_3416"
    INDEX 01 00:39:60
  TRACK 34 AUDIO
    TITLE "0:"
    INDEX 01 00:40:56
  TRACK 35 AUDIO
    TITLE "5:cjc005_3417"
    INDEX 01 00:41:06
  TRACK 36 AUDIO
    TITLE "0:"
    INDEX 01 00:45:06
  TRACK 37 AUDIO
    TITLE "3:cjc005_3418"
    INDEX 01 00:45:55
  TRACK 38 AUDIO
    TITLE "0:"
    INDEX 01 00:47:11
  TRACK 39 AUDIO
    TITLE "4:cjc005_3419"
    INDEX 01 00:47:38
  TRACK 40 AUDIO
    TITLE "0:"
    INDEX 01 00:48:65
  TRACK 41 AUDIO
    TITLE "5:cjc005_3420"
    INDEX 01 00:49:18
  TRACK 42 AUDIO
    TITLE "0:"
    INDEX 01 00:53:02
  TRACK 43 AUDIO
    TITLE "3:cjc005_3421"
    INDEX 01 00:53:58
  TRACK 44 AUDIO
    TITLE "0:"
    INDEX 01 00:55:12
  TRACK 45 AUDIO
    TITLE "4:cjc005_3422"
    INDEX 01 00:55:32
  TRACK 46 AUDIO
    TITLE "0:"
    INDEX 01 00:57:07
  TRACK 47 AUDIO
    TITLE "5:cjc005_3423"
    INDEX 01 00:57:33
  TRACK 48 AUDIO
    TITLE "0:"
    INDEX 01 01:00:45
  TRACK 49 AUDIO
    TITLE "3:cjc005_3424"
    INDEX 01 01:01:31
  TRACK 50 AUDIO
    TITLE "0:"
    INDEX 01 01:02:38
  TRACK 51 AUDIO
    TITLE "4:cjc005_3425"
    INDEX 01 01:02:67
  TRACK 52 AUDIO
    TITLE "0:"
    INDEX 01 01:04:03
  TRACK 53 AUDIO
    TITLE "5:cjc005_3426"
    INDEX 01 01:04:27
  TRACK 54 AUDIO
    TITLE "0:"
    INDEX 01 01:08:36
  TRACK 55 AUDIO
    TITLE "3:cjc005_3427"
    INDEX 01 01:09:20
  TRACK 56 AUDIO
    TITLE "0:"
    INDEX 01 01:10:53
  TRACK 57 AUDIO
    TITLE "4:cjc005_3428"
    INDEX 01 01:11:00
  TRACK 58 AUDIO
    TITLE "0:"
    INDEX 01 01:12:13
  TRACK 59 AUDIO
    TITLE "5:cjc005_3429"
    INDEX 01 01:12:36
  TRACK 60 AUDIO
    TITLE "0:"
    INDEX 01 01:16:71
